<svg xmlns="http://www.w3.org/2000/svg" viewBox="0 0 540.31 540.27"><defs><style>.cls-1{fill:#f0efef;}.cls-2{fill:#c10230;}.cls-3{fill:#131313;}.cls-4{fill:none;stroke:#131313;stroke-linecap:round;stroke-width:12px;}</style></defs><g id="Layer_1" data-name="Layer 1"><ellipse class="cls-1" cx="270.16" cy="270.14" rx="270.16" ry="270.14"/><path class="cls-2" d="M270.17,540.27c149,0,270.14-121.23,270.14-270.12S419.16,0,270.17,0,0,121.2,0,270.15,121.19,540.27,270.17,540.27ZM11.32,270.15c0-142.74,116.13-258.82,258.85-258.82S529,127.41,529,270.15s-116,258.77-258.79,258.77S11.32,412.82,11.32,270.15Z"/><path class="cls-2" d="M197.2,41l.84.61.76,1.69c.64,2.16,1.23,4.46,1.86,7.18l1.68,7.2,1.27,5.42a53.3,53.3,0,0,0,1.43,5.5l1.88,3.2a11.18,11.18,0,0,0,3.39,2.53,12.79,12.79,0,0,0,5,1.28,27.44,27.44,0,0,0,8.31-.75,25.14,25.14,0,0,0,6.33-2.3,16.41,16.41,0,0,0,4.31-3.44,12.94,12.94,0,0,0,2.3-4.24,12.23,12.23,0,0,0,.44-5,34.6,34.6,0,0,0-.87-5.37l-1.55-6.72c-.46-1.9-1-4.63-1.67-8a39.78,39.78,0,0,1-.92-5.88l.34-1a7.36,7.36,0,0,1,3.22-1.17L235,29.34,228.73,31l-.75.24c-.63.13-2.71.54-6.17,1.17l.52,2.37a10,10,0,0,1,4.27-.36l.81.5a17.51,17.51,0,0,1,1.41,4.22c.28,1.08,1,4.15,2.16,9.11L232.29,54c1,4,1.3,6.84.93,8.45a8,8,0,0,1-2.53,4.28,13,13,0,0,1-6,2.82,13.55,13.55,0,0,1-5.89.27A6.84,6.84,0,0,1,215,68a8.9,8.9,0,0,1-2.36-4c-.3-.79-.82-2.92-1.61-6.35l-.82-3.31-1.54-6.6a47.08,47.08,0,0,1-1.4-7.82l.31-1.15c.5-.5,1.75-.93,3.79-1.43L210.75,35l-1,.29-3.77,1-3.85,1-9.25,2,.59,2.34Z"/><path class="cls-2" d="M259.14,68V65.64l-.59,0-2.71-.27-1-.33-.39-.52a22.16,22.16,0,0,1-.35-4c-.09-3.2-.15-6.33-.15-9.35V36.87c11.42,13.85,20.19,24.28,26.42,31.26,1.63.16,3.29.43,4.92.7l.36-.27c-.28-2.71-.36-10.47-.36-23.25,0-1.66,0-4.17.08-7.56a35.6,35.6,0,0,1,.58-6.62l.33-.43a13.2,13.2,0,0,1,4.2-.52V27.76c-3,.1-5.48.15-7.37.15s-4.08-.05-6.47-.15v2.42c2.55.05,4.1.28,4.5.57l.56,1.39c.16,1.84.3,7.91.3,18.23V57c-2.67-2.69-6-6.54-10.06-11.45-5.66-6.68-10.4-12.58-14.37-17.82l-2.66.1-4.2.05c-1.14,0-2.94-.05-5.38-.15v2.42c2,.16,3.27.28,3.65.35l.92.51.44.92a15.7,15.7,0,0,1,.15,2.79l.16,8.34v9.26c0,2.56-.07,4.64-.16,6.25-.09,2.8-.28,4.52-.37,5.27l-.38,1.07-.55.37c-.3.1-1.6.16-3.86.33v2.49c3.21-.14,5.7-.22,7.6-.22C253.38,67.91,255.46,67.91,259.14,68Z"/><path class="cls-2" d="M82.05,121l1-.38,1,.3,2.16,1.66,6.4,5.44,7,6.13c1.94,1.68,3.49,3,4.61,4.17,2,2,3.27,3.27,3.71,3.8l.57,1-.09.66a30.82,30.82,0,0,1-2.32,3.1l1.84,1.66c2-2.47,3.67-4.4,4.89-5.87.32-.31,1.7-1.86,4.13-4.63l-1.75-1.49-.36.43-2,1.91-.84.52-.68-.07a19.79,19.79,0,0,1-3.32-2.41c-2.48-2.09-4.86-4.07-7.1-6L90,121.36c17.94.63,31.59.91,40.88.79,1.29-1.12,2.52-2.16,3.8-3.19l.05-.5c-2.2-1.61-8.1-6.57-17.7-15-1.22-1.06-3.11-2.78-5.62-5.09a33.61,33.61,0,0,1-4.58-4.78l-.11-.54c.06-.51.88-1.64,2.35-3.48l-1.82-1.61c-1.89,2.36-3.45,4.26-4.66,5.68s-2.79,3.08-4.46,4.73l1.8,1.57c1.76-1.86,2.89-2.9,3.45-3l1.35.54c1.51,1,6.18,5,14,11.75l5,4.39c-3.83.22-8.91.22-15.23,0q-13.19-.3-22.89-1l-1.7,2.09-2.71,3.17c-.7.9-2,2.18-3.71,3.93l1.87,1.62A28.68,28.68,0,0,1,82.05,121Z"/><path class="cls-2" d="M311.8,72.29l.4-2.43a19.94,19.94,0,0,1-3.3-.73l-.75-.38-.31-.62a22.17,22.17,0,0,1,.31-4.59l.67-5.09,1.64-11.14c.09-.29.46-2.81,1.23-7.32.2-1.35.42-2.22.51-2.7l.54-1.72.35-.38.78-.24a16.78,16.78,0,0,1,3.32.3l.42-2.45c-3.06-.36-6.24-.79-9.6-1.26-3-.48-5.66-.89-8-1.36l-.35,2.43c2,.39,3.17.63,3.49.76l.62.41.15.61c0,.57-.09,2.07-.31,4.4-.12,1.12-.46,3.47-1,7.13l-1.71,11.55c-.28,1.88-.66,3.93-1.17,6.07-.35,1.54-.52,3.17-.61,3.37l-.28.41-.89.2c-.3,0-1.46-.08-3.3-.31l-.4,2.41c2.31.24,5,.6,7.95,1C305.63,71.19,308.82,71.68,311.8,72.29Z"/><path class="cls-2" d="M468,144.89c-.83.63-2.91,1.9-6.05,3.8L452,154.91c-1.66,1-3.43,2.06-5.38,3.08-1.36.73-2.73,1.61-3,1.72l-.51.06-.66-.59a32.86,32.86,0,0,1-2-2.69l-2.06,1.23c1.33,1.95,2.83,4.17,4.38,6.71,1.83,3,3.47,5.78,5,8.42l2.1-1.37a21.12,21.12,0,0,1-1.6-2.88l-.15-.87.28-.65a25.67,25.67,0,0,1,3.62-2.73l4.32-2.76,9.59-6c.31-.15,2.4-1.42,6.34-3.78l2.34-1.36,1.71-.76.57.06.68.42c.23.28.88,1.18,1.95,2.8l2.08-1.34c-1.67-2.51-3.45-5.25-5.28-8.12-1.58-2.61-2.9-4.88-4.07-7l-2.13,1.37a26.6,26.6,0,0,1,1.64,3.09l.1.77-.31.52A42.37,42.37,0,0,1,468,144.89Z"/><path class="cls-2" d="M329.91,41.48c.21,1.61.64,6.48,1.28,14.52L332,66.41c.29,3.81.6,7.88.86,12.1l4.09,1.37c2.09-2.72,5.85-7.29,11.34-13.57l6.49-7.42,3.37-3.82c2.74-3.2,4.45-4.83,5.07-5.1a8,8,0,0,1,3.15.52l.79-2.39-5.84-1.74L354.58,44l-.77,2.29,2.85,1.18.94.42.27.48-.08.71-.26.68c-.43.64-1.42,1.94-2.89,3.8-2.17,2.65-3.3,4.15-3.56,4.46L340.21,70.72,338.92,52v-.57c0-.15-.07-1.18-.2-3-.25-3.25-.29-5.18-.08-5.69l.44-.6L340,42a16.47,16.47,0,0,1,3.31.81l.81-2.32-9.68-3c-.93-.28-3.5-1.22-7.76-2.75L326,37a9,9,0,0,1,3.13,1.61A6.74,6.74,0,0,1,329.91,41.48Z"/><path class="cls-2" d="M373.48,65.64l-6.35,11q-1.12,1.89-3.73,6c-.92,1.45-1.68,2.54-2.15,3.15l-3.2.07-.77,1.29c5.12,2.81,7.84,4.37,8.19,4.61,1.49.8,4.16,2.36,7.93,4.66l3.92,2.4a34.79,34.79,0,0,0,4.56,2.33l.44-.1a89.86,89.86,0,0,1,5.19-7.63l-2-1.18A30.36,30.36,0,0,1,382,96.12l-.58.21a7.43,7.43,0,0,1-3-1.08c-1.56-.75-3.24-1.63-5-2.64s-3.3-2-4.54-2.85l1.65-3,6-10.36c1.08.53,2.42,1.27,4,2.14a38.34,38.34,0,0,1,4.13,2.77l.73,1.21a9.67,9.67,0,0,1-1.71,3.74l2.1,1.21,3-5.45L392,76.7l-2-1.12a12.5,12.5,0,0,1-2.17,2.89l-.58.29-1.67-.69c-2.34-1.28-3.68-2.06-4.1-2.29l-3.4-2,2.92-5a56.29,56.29,0,0,1,4.41-6.78c1.53.76,3.09,1.48,4.56,2.39a41,41,0,0,1,4.53,3l1.76,1.51v.65a40.06,40.06,0,0,1-1.85,3.66l1.89,1.09c1.37-2,2.13-3.15,2.29-3.32l2.5-3.28v-.42l-.75-.62c-1.71-1.12-2.84-1.82-3.47-2.13l-5-2.79c-2.8-1.54-5.26-3-7.47-4.24l-3.22-1.84-5.55-3.49-1.24,2.13a15.36,15.36,0,0,1,3.24,2.45l.18.65a15.77,15.77,0,0,1-1.59,3.51C374.64,63.6,373.75,65.26,373.48,65.64Z"/><path class="cls-2" d="M33.06,230.89l.53-.31a15,15,0,0,1,3.86.49c3.09.65,4.87,1.05,5.35,1.11l12.34,2.89c1.47.35,3.75,1,6.82,1.85a33.28,33.28,0,0,1,3.7,1.14l.9,3.05,1.53.36c1.18-5.69,1.87-8.8,2-9.26.34-1.59,1.11-4.6,2.2-8.92l1.09-4.42a47.82,47.82,0,0,0,1-5l-.28-.44a83.58,83.58,0,0,1-8.79-2.65L64.68,213a26.89,26.89,0,0,1,4.78,2.19l.39.44a8.67,8.67,0,0,1-.16,3.26c-.25,1.71-.64,3.53-1,5.53s-1,3.74-1.39,5.24c-1-.23-2.08-.4-3.39-.73l-11.62-2.69c.18-1.2.44-2.68.83-4.45A35.49,35.49,0,0,1,54.53,217l.95-1a10.9,10.9,0,0,1,4,.49l.54-2.41-6-1.24-6-1.52-.55,2.26a12.73,12.73,0,0,1,3.4,1.21l.46.53-.17,1.77c-.54,2.6-.85,4.14-.92,4.56-.37,1.4-.72,2.68-1.11,3.83l-5.59-1.27a80.78,80.78,0,0,1-7.8-2.2c.27-1.73.58-3.43,1-5a47.62,47.62,0,0,1,1.54-5.27l1-2.07.57-.27a35.7,35.7,0,0,1,4.05.7l.48-2.12c-2.29-.7-3.61-1.14-3.85-1.19l-3.82-1.41-.42.08-.36.85c-.61,2-.87,3.36-1.05,4l-1.15,5.58c-.67,3.08-1.29,5.85-1.87,8.37L31,227.86l-1.65,6.35,2.37.49A18.18,18.18,0,0,1,33.06,230.89Z"/><path class="cls-2" d="M407,87.29l-6.66,8.06-5.45,6.26-2.33,2.27-.64.5-.59-.11a18.76,18.76,0,0,1-3.14-2.16L386.59,104c2,1.52,4.14,3.2,6.36,5.06,2.56,2.1,5,4.24,7.48,6.32L402,113.5a21.37,21.37,0,0,1-2.41-2.26l-.48-.74V110l1.08-1.78c.33-.48,1.65-2.17,4-5.25,2-2.44,3.85-4.77,5.62-6.94,1.18-1.39,3.51-4.05,6.91-8.1,1.54-1.78,2.6-2.89,3-3.48L422,86.05a10.82,10.82,0,0,1,3,3.06,6.59,6.59,0,0,1,.88,3.78A7.21,7.21,0,0,1,424.06,97a9.46,9.46,0,0,1-3.86,2.78,5.79,5.79,0,0,1-4.05.42,10.18,10.18,0,0,1-4.38-2.69l-.87.49.2,2.58c-.14,2-.43,4.7-.87,8L408.51,120l-.48,1.66,3.52,2.78c1,.82,2.59,2.2,4.82,4l1.46-1.81-1.27-1.27-.26-1.13c0-.49.07-1.83.15-4.22,0-.14.11-1.25.35-3.33l.8-7.89.06-.61.2-1.91.42-3a13.79,13.79,0,0,0,7.8.72,9.58,9.58,0,0,0,5.57-3.44,7.64,7.64,0,0,0,2-4.71,6.93,6.93,0,0,0-1.22-4.41,25.25,25.25,0,0,0-4.71-4.75c-1.18-1-2.7-2.13-4.54-3.55-1.16-.82-2.5-1.9-4-3.16-1.81-1.46-3.19-2.59-4.1-3.46-1.95-1.69-3.06-2.66-3.4-2.93l-1.43,1.76a23.74,23.74,0,0,1,2.83,3.12v.64a19.92,19.92,0,0,1-2.43,3.45Z"/><path class="cls-2" d="M427,139.32a12.18,12.18,0,0,1-2.4-5.31,8.64,8.64,0,0,1,.21-4.88,42,42,0,0,1,3.83-3.36l-1.48-1.89a37.91,37.91,0,0,1-8.36,5.3,27.11,27.11,0,0,0,1.87,6.14,27.47,27.47,0,0,0,3.26,5.34,21.16,21.16,0,0,0,6.09,5.67,15,15,0,0,0,4.58,1.71,14.26,14.26,0,0,0,4.91.25,13.24,13.24,0,0,0,6-2.73l2.67-2.74,1.33-2.76.14-3a14.63,14.63,0,0,0-1.07-3.77c-.29-.61-.91-1.7-1.84-3.51s-1.6-3.16-2.08-4.13a13,13,0,0,1-1-3.37l.43-2.48,2-2.37A6.4,6.4,0,0,1,451,116.3a8.84,8.84,0,0,1,5.18,3.64,12.88,12.88,0,0,1,2.19,4.42,7.19,7.19,0,0,1,.1,3.75,39.54,39.54,0,0,1-3.5,3.12l1.38,1.84c1.59-1.13,2.93-2,3.92-2.64l3.26-1.73.37-.59a18.6,18.6,0,0,0-1.76-4.84,30.85,30.85,0,0,0-3.12-5,24.92,24.92,0,0,0-4-4.16,13.93,13.93,0,0,0-4.65-2.56,9.42,9.42,0,0,0-5.44-.24,11.8,11.8,0,0,0-5.49,2.48L436.52,117a9.24,9.24,0,0,0-1.31,3.86,10.8,10.8,0,0,0,.71,4.42c.4,1.05,1.35,3.17,2.89,6.36a23.84,23.84,0,0,1,1.81,5l-.38,2.84-2,2.41-3.64,1.66a7,7,0,0,1-4-.93A11.41,11.41,0,0,1,427,139.32Z"/><path class="cls-2" d="M43.42,273.33a9,9,0,0,0,3.39-2.13,10.23,10.23,0,0,0,2.26-3.92c.37-1.06.9-3.33,1.69-6.73a22,22,0,0,1,1.75-5l2.1-2.07,3-.64A8.29,8.29,0,0,1,61.47,254,6.32,6.32,0,0,1,64,257.14a11.13,11.13,0,0,1,.88,4.84,12.6,12.6,0,0,1-1.47,5.67,9.13,9.13,0,0,1-3.22,3.64,36.42,36.42,0,0,1-5.14.16l0,2.38A42.43,42.43,0,0,1,64.92,275a33,33,0,0,0,2.39-5.95,28.42,28.42,0,0,0,.74-6.25,21.32,21.32,0,0,0-1.13-8.2,15.91,15.91,0,0,0-6.18-7.49,14.11,14.11,0,0,0-6.38-1.63,11,11,0,0,0-3.74.48l-2.8,1.27-2,2.21a14,14,0,0,0-1.54,3.71c-.14.58-.42,1.87-.85,3.82s-.65,3.48-.89,4.59a14.24,14.24,0,0,1-1.36,3.24l-1.88,1.61-3.08.57a6,6,0,0,1-4.52-2.21,8.61,8.61,0,0,1-1.79-6,11.88,11.88,0,0,1,1.1-4.86,6.66,6.66,0,0,1,2.28-3,42.47,42.47,0,0,1,4.69-.17l.06-2.38a39.63,39.63,0,0,1-4.66-.42l-3.64-.66-.67.24a17.55,17.55,0,0,0-1.71,4.88,35,35,0,0,0-.68,5.81,28.4,28.4,0,0,0,.48,5.69,14.82,14.82,0,0,0,2,5,10.79,10.79,0,0,0,4.1,3.63,13.13,13.13,0,0,0,5.8,1.5A13.79,13.79,0,0,0,43.42,273.33Z"/><path class="cls-2" d="M512.4,256.78a14.39,14.39,0,0,0-2.3-4.83,10.39,10.39,0,0,0-4.3-3.37,13.63,13.63,0,0,0-10.15-.27,9.55,9.55,0,0,0-3.31,2.43,9.24,9.24,0,0,0-1.95,4c-.3,1.06-.71,3.36-1.34,6.81a22.22,22.22,0,0,1-1.4,5.08l-2,2.17-3,.76a8.11,8.11,0,0,1-3.9-.82,6.73,6.73,0,0,1-2.74-3,12.07,12.07,0,0,1-1.13-4.75,12.78,12.78,0,0,1,1.13-5.77,9.06,9.06,0,0,1,3-3.83,34.45,34.45,0,0,1,5-.52l-.08-2.36a43.65,43.65,0,0,1-9.88-.52,27.93,27.93,0,0,0-2.05,6,28.7,28.7,0,0,0-.39,6.31,22.21,22.21,0,0,0,1.64,8.05A13.66,13.66,0,0,0,476,272.5a14.92,14.92,0,0,0,3.94,3.06,13.62,13.62,0,0,0,6.44,1.26,12.82,12.82,0,0,0,3.74-.7l2.71-1.47,1.84-2.36a14.2,14.2,0,0,0,1.31-3.73c.06-.63.31-1.92.51-3.92s.53-3.47.7-4.59a12.74,12.74,0,0,1,1.15-3.28l1.79-1.8,3-.76a6,6,0,0,1,4.63,1.93,8.78,8.78,0,0,1,2.2,5.92,12.21,12.21,0,0,1-.84,4.92,7.82,7.82,0,0,1-2.08,3.17,38.37,38.37,0,0,1-4.65.45l.07,2.36c1.92,0,3.54.07,4.67.07l3.67.46.68-.21a18.88,18.88,0,0,0,1.36-4.95,30.13,30.13,0,0,0,.33-5.87A25.2,25.2,0,0,0,512.4,256.78Z"/><path class="cls-2" d="M478.16,164.6a24.35,24.35,0,0,1,4.29-1.38l1.05-.08.64.93c.73,1.36,1.49,3,2.3,4.86l1.63,3.76c-.49.26-2.87,1.33-7.13,3.1l-15.68,6.74a53.27,53.27,0,0,1-6.89,2.7L457,184.8a11,11,0,0,1-2-3.5l-2.17.93c1.55,3.1,2.85,6,3.92,8.44,1,2.3,2.15,5.2,3.45,8.67l2.15-1a14.58,14.58,0,0,1-1.19-3.94l.64-1.2a49.89,49.89,0,0,1,6.7-3.21l15.67-6.72c4.16-1.81,6.55-2.8,7.21-3l1.58,3.73c.88,2,1.54,3.81,2,5.23l.17.93-.94.85c-1.2.66-2.42,1.38-3.78,2l.94,2.12c3.7-1.48,5.65-2.25,5.77-2.34L500,192l.16-.43-1.24-2.3c-.68-1.45-1.95-4.43-3.84-8.79l-4.53-10.56c-1.87-4.27-3.07-7.18-3.67-8.68l-.93-2.67-.35-.11-2.39,1.29c-.47.21-2.46,1.14-6,2.7Z"/><path class="cls-2" d="M479.42,209c-3.74-.52-6.2-.87-7.43-1.08-2.7-.46-4.26-.74-4.68-.86l-1-.41-.54-.67a14.56,14.56,0,0,1-1-2.6l-2.26.59,1.67,6.31,1.39,6.39,2.3-.52c-.47-2.24-.65-3.59-.47-4.09l.86-.7a18.23,18.23,0,0,1,5,.3l3.63.4,3.41,14.21-5.52,3.87-2.1,1.1-.89-.21a19.64,19.64,0,0,1-1.31-3.67l-2.27.55,2.49,9.63,1.72,7.75,2.25-.55-.14-1.22-.17-1.71.17-.61.65-.7,2.24-1.7,3.39-2.66,25.85-19.24-.9-4-6.91-.9Zm3.8,15.1c-.47-1.61-1-3.53-1.47-5.61s-1-4.18-1.3-5.93L496,214.76Z"/><path class="cls-2" d="M498.11,297.21a10.65,10.65,0,1,0,10.63,10.65A10.64,10.64,0,0,0,498.11,297.21Z"/><path class="cls-2" d="M503.34,342.52l-.49.32-.57.05a26.44,26.44,0,0,1-3.24-1c-.28-.08-1.3-.48-3-1.14L489,337.89l-5.67-2.35-2.53-1.1-1.66-1.24c-.17-.5,0-1.4.59-2.84l.09-.23-1.72-.71-2.25,6.05c-.24.52-.71,1.64-1.51,3.35l2.28,2.22c.59.61,2.16,2.27,4.67,5l4.51,4.86c1.19,1.32,2.82,3.11,4.93,5.58l-15.82,1.09-3.59.15-4.7.21c-.46,1.43-1,2.85-1.55,4.22-.37,1.06-1.23,2.89-2.4,5.69l1.7.68,1.25-2.28.49-.6.51-.05a18.84,18.84,0,0,1,3.89,1.23c2.06.81,4.53,1.78,7.23,2.86,3.05,1.19,5.21,2.09,6.44,2.65,2.55,1.08,4.16,1.88,4.91,2.25l.69.55.11.46a13.14,13.14,0,0,1-.74,2.89l1.71.69c.39-1.28,1-2.89,1.84-5,.61-1.57,1.3-3.08,2-4.59l-1.7-.72a15.21,15.21,0,0,1-1.24,2.4l-.59.47h-.77c-.33-.07-1.63-.55-3.92-1.43s-4.27-1.61-5.9-2.31l-9.94-3.93,12.94-1c2-.15,5-.3,9-.51,2.31-.12,4.14-.2,5.46-.2l.54-1.4-2.83-2.92-4.37-4.7-3.77-4.11-7.58-8.47,14.66,5.89a29.68,29.68,0,0,1,4.94,2.18l.73.86a11.22,11.22,0,0,1-.86,3l1.74.67,2.42-6.33,2.66-6.32-1.7-.71C503.83,341.53,503.44,342.34,503.34,342.52Z"/><path class="cls-2" d="M478.69,383.51,475.37,381,471,378.4c-1.34-.84-3.1-2-5.24-3.49a30,30,0,0,1-3.62-2.64l-.33-.68,1.11-2.34-1.58-1-2.47,4.21-.29.5c-.29.47-1.1,1.74-2.62,3.94l1.56,1a7.11,7.11,0,0,1,2.07-2.41l.68-.18a15.86,15.86,0,0,1,3,1.53c.71.43,2.7,1.66,6,3.74l3.8,2.35c2.63,1.64,4.28,3,5,4a6.21,6.21,0,0,1,1,3.57,9.84,9.84,0,0,1-1.76,4.69,10.41,10.41,0,0,1-2.92,3.3l-3.12,1.13-3.38-.91c-.52-.28-2-1.13-4.26-2.55l-2.18-1.34-4.29-2.66a34.25,34.25,0,0,1-5-3.46l-.4-.79a6.63,6.63,0,0,1,1.23-2.81l-1.53-.92-.43.7-1.51,2.52L448,390l-3.89,6,1.57.94,1.74-2.29.77-.1,1.34.47c1.45.8,3,1.75,4.8,2.79l4.71,3,3.58,2.29a39.59,39.59,0,0,0,3.67,2.12l2.68.7,3.19-.41,3.32-2a20.76,20.76,0,0,0,4.08-4.83,17,17,0,0,0,2.14-4.6,10.51,10.51,0,0,0,.43-4.16,8.22,8.22,0,0,0-1-3.45Z"/><path class="cls-2" d="M464.21,416.21l-.59.36-.59-.08-2.45-1.61-3.21-2.38-7.05-5.42c-.22-.12-1.7-1.36-4.53-3.63l-1.7-1.35-1-1.05-.08-.38.14-.66,1.46-2.16-1.53-1.19c-1.36,2-2.89,4-4.53,6.08-1.45,1.93-2.77,3.52-4,5l1.5,1.17,1.86-2.06.54-.26.51.09a29.13,29.13,0,0,1,2.88,1.88c.66.49,2.18,1.63,4.49,3.39l7.27,5.63c1.15.9,2.44,1.91,3.75,3.1l1.54,1.39.19.4-.23.67-1.5,2.11,1.57,1.21c1-1.53,2.26-3.2,3.74-5.09,1.66-2.14,3.22-4.13,4.74-6l-1.52-1.14Z"/><path class="cls-2" d="M430.27,452.59l-.68.22-.52-.22-2-2-2.68-3.1-5.73-6.73c-.18-.17-1.4-1.68-3.72-4.47l-1.33-1.66-.77-1.27V433l.29-.57,1.9-1.84L413.72,429c-1.75,1.65-3.65,3.36-5.69,5-1.8,1.51-3.5,2.87-4.93,4l1.26,1.49,2.21-1.69.62-.08.39.18a25.48,25.48,0,0,1,2.49,2.47c.56.66,1.77,2.08,3.65,4.24l6,7c.94,1.2,1.95,2.47,3,3.83l1.19,1.73.11.39-.35.6-1.9,1.77,1.24,1.54c1.38-1.29,2.94-2.68,4.71-4.24,2.08-1.79,4-3.37,5.93-4.84L432.4,451Z"/><path class="cls-2" d="M191.14,469.5c-2.24-.93-4.19-1.68-5.89-2.41l-.7,1.8c1.48.67,2.29,1,2.53,1.13l.42.45v.5a18.78,18.78,0,0,1-.95,3.37c-.28.78-.93,2.54-2,5.28l-3.25,8.53a44,44,0,0,1-1.92,4.51l-.86,1.92-.36.18h-.6A14.73,14.73,0,0,1,175,494l-.69,1.74c1.77.62,3.74,1.3,6,2.15,2.53.93,4.94,1.89,7.09,2.88l.67-1.85c-1.3-.55-2.13-.93-2.39-1l-.51-.48-.09-.54a11.16,11.16,0,0,1,.85-2.85l1.34-3.76L190.4,482c.13-.27.84-2,2.14-5.39l.85-2,.7-1.3.34-.23h.65a13.77,13.77,0,0,1,2.53.75l.69-1.79C196,471.28,193.68,470.4,191.14,469.5Z"/><path class="cls-2" d="M147.61,446.42c-2-1.3-3.73-2.5-5.2-3.56l-1.06,1.6a17.09,17.09,0,0,1,2.21,1.68l.32.47-.1.53a27,27,0,0,1-1.63,3c-.47.77-1.44,2.36-3,4.78l-5,7.7c-.85,1.23-1.79,2.58-2.82,4l-1.25,1.61-.38.2-.68-.2a15.88,15.88,0,0,1-2.28-1.22l-1,1.61c1.59.95,3.37,2,5.35,3.35,2.27,1.45,4.41,2.88,6.34,4.26l1.07-1.61-2.14-1.59-.38-.59V472l1.41-2.6,2.14-3.44,4.81-7.4c.12-.24,1.21-1.84,3.22-4.81l1.25-1.77.95-1.12.38-.21.63.13,2.32,1.3,1.08-1.61Q151,448.62,147.61,446.42Z"/><path class="cls-2" d="M447.78,435.38l-1.09-.12a43.22,43.22,0,0,1-4.21-3.8L433,422.31c-2.53-2.48-3.95-3.84-4.28-4.21l2.17-2.32,3.14-3,.61-.35.88.38,2.55,2.06,1.31-1.31c-2.22-2.2-3.36-3.25-3.45-3.42l-1.48-1.77h-.3l-1.34,1.6c-.84.86-2.56,2.68-5.11,5.3l-6.21,6.4c-2.47,2.53-4.19,4.27-5.1,5.14l-1.62,1.5,0,.3,1.62,1.29c.29.2,1.51,1.38,3.7,3.45l1.31-1.3-2.27-2.65-.35-.71.44-.68,2.78-3.15,2.2-2.29c.37.25,1.81,1.68,4.39,4.15l9.43,9.19a34,34,0,0,1,3.9,4.15l.18,1.08-1.92,2.49,1.25,1.25c1.81-2.05,3.46-3.78,4.9-5.31,1.34-1.36,3.07-3,5.13-5l-1.29-1.26Z"/><path class="cls-2" d="M222.82,482.21l.68.38v1l-.63,3.15,1.7.57c.89-3,1.36-4.53,1.41-4.65l.92-2.15-.17-.25-2-.41c-1.23-.32-3.62-1-7.16-2l-8.51-2.52c-3.43-1-5.75-1.68-7-2.09l-2.06-.77-.25.16-.36,2.07c-.12.36-.55,2-1.31,4.91l1.74.48,1.28-3.19.48-.62h.88c1.14.32,2.53.59,4,1l3,.86c-.09.45-.61,2.38-1.65,5.78l-3.69,12.66a31.27,31.27,0,0,1-1.78,5.4l-.9.68a12.46,12.46,0,0,1-3.1-.55l-.5,1.71c2.67.65,5,1.24,7,1.8s4.16,1.28,6.86,2.23l.48-1.77a10.84,10.84,0,0,1-2.9-1.18l-.39-1a34.1,34.1,0,0,1,1.34-5.53L214,485.76c1-3.37,1.54-5.32,1.74-5.79l3,.92C220.31,481.39,221.69,481.8,222.82,482.21Z"/><path class="cls-2" d="M119.57,452.3l8.33-10.2c2.18-2.7,3.43-4.26,3.81-4.64l2.44,2c1.31,1.05,2.4,2,3.24,2.85l.45.58-.36.9-1.85,2.76,1.47,1.13c1.93-2.37,2.94-3.66,3.06-3.72l1.68-1.65-.07-.29-1.66-1.16c-1-.78-2.9-2.37-5.79-4.59l-6.89-5.64c-2.81-2.25-4.68-3.84-5.61-4.62l-1.62-1.46h-.3l-1.13,1.76c-.23.28-1.31,1.66-3.13,4l1.43,1.15,2.44-2.44.69-.5.74.4,3.34,2.54,2.46,1.93c-.24.37-1.49,2-3.76,4.74l-8.27,10.2a28.46,28.46,0,0,1-3.79,4.26l-1.06.33a11.52,11.52,0,0,1-2.66-1.75l-1.14,1.42c2.19,1.6,4.09,3,5.7,4.36s3.35,2.78,5.5,4.63l1.11-1.32a10.22,10.22,0,0,1-2.2-2.29l0-1.1A34.46,34.46,0,0,1,119.57,452.3Z"/><path class="cls-2" d="M403.16,451.85l-.72-4c-.63-3.16-.79-5-.65-5.45l1.81-1.8-1-1.59-3.9,2.68-4.73,3,1.05,1.54,2.09-1.16.73-.28.42,0,.41.41.28.41c.17.58.47,1.78.93,3.6.59,2.68.9,4.06.94,4.42l2.54,12.75-12.08-8.25-.36-.32L389,456.58a19.48,19.48,0,0,1-3.52-2.74l-.16-.59.41-.59,2.11-1.64-1.05-1.57-6.51,4.39c-.63.46-2.46,1.57-5.44,3.41l1,1.62,2.53-1.2,2.13.9c1.09.62,4.24,2.74,9.48,6.26l6.7,4.55c2.49,1.72,5.09,3.47,7.78,5.37l2.81-1.83c-.64-2.58-1.54-7.12-2.74-13.51Z"/><path class="cls-2" d="M181,467.64a7.75,7.75,0,0,1,2.4.7l.89-1.68-4.32-2L175,461.94l-.87,1.68,2.06,1.27.73.44.1.42-.1.53-.31.48c-.42.47-1.32,1.35-2.69,2.6-1.93,1.77-3,2.74-3.31,2.94l-9.83,8.59,1.25-14.63,0-.39c0-.14.09-.95.19-2.38a18.26,18.26,0,0,1,.67-4.38l.39-.4.72,0,2.49,1,.87-1.72-7.09-3.38-5.65-3.08-.85,1.7,2.23,1.57a5.51,5.51,0,0,1,.31,2.33c-.07,1.25-.29,5-.77,11.37l-.63,8.09c-.25,2.92-.49,6.05-.8,9.36l3,1.49c1.9-1.8,5.35-4.84,10.36-9l5.88-5,3-2.49C179,468.82,180.45,467.71,181,467.64Z"/><path class="cls-2" d="M389.48,481.64l-.92-.11c-.29-.14-1.29-.61-2.94-1.45-.09-.05-.88-.46-2.29-1.27L378,475.7l-.43-.24-1.27-.8-2.05-1.27a11.33,11.33,0,0,0,3.06-5.28,8.23,8.23,0,0,0-.69-5.1,6.37,6.37,0,0,0-2.77-2.87l-3.51-.48a17.16,17.16,0,0,0-4.88,1.79c-1.07.54-2.39,1.2-4,2.13-.93.52-2.13,1.13-3.49,1.81-1.63.75-2.82,1.41-3.77,1.84-1.8.79-2.85,1.34-3.16,1.49l.76,1.59a13.63,13.63,0,0,1,3.17-1.08l.44.2a16.12,16.12,0,0,1,1.68,2.87l2.14,4.13,3.65,7.23,2.63,5.84,1,2.43.09.66-.27.34a14.63,14.63,0,0,1-2.5,1.54l.86,1.77c1.68-.95,3.57-2,5.58-3,2.33-1.14,4.62-2.24,6.91-3.27l-.83-1.72c-1.32.59-2.1,1-2.35,1h-.71l-.41-.09-.92-1.36c-.17-.33-1.05-1.86-2.36-4.55-1.13-2.13-2.23-4.22-3.18-6.24-.61-1.2-1.82-3.75-3.54-7.47-.83-1.68-1.31-2.79-1.54-3.22l1.84-1.11a9.15,9.15,0,0,1,3.09-1.18l2.92.61,2.4,2.61.77,3.65-1,3a8.79,8.79,0,0,1-3.32,2.25l.09.7,1.86.74a57.3,57.3,0,0,1,5.42,3.16L383,485.7l1.07.84,3.07-1.57c.87-.5,2.39-1.15,4.42-2.12l-.81-1.66Z"/><path class="cls-2" d="M62,391.24s.46-.87,1.21-2.33l3-5.4.2-.44.74-1.34,1.18-2a11.41,11.41,0,0,0,5.5,2.85,7.92,7.92,0,0,0,5-.84,6.13,6.13,0,0,0,2.82-2.87l.39-3.51a18.83,18.83,0,0,0-2-4.77c-.53-1.06-1.27-2.37-2.18-4-.59-.92-1.19-2.07-1.93-3.43-.85-1.61-1.51-2.81-1.95-3.71-.89-1.78-1.4-2.85-1.6-3.16l-1.59.88a12,12,0,0,1,1.19,3.08l-.22.44a12.86,12.86,0,0,1-2.76,1.78l-4,2.26-7.21,3.9-5.74,2.82-2.37,1-.62.16-.4-.24a13.15,13.15,0,0,1-1.6-2.52l-1.71.94c1,1.66,2,3.53,3.07,5.53,1.21,2.25,2.39,4.48,3.47,6.74l1.75-.9-1.06-2.3-.12-.62.14-.44,1.31-.95c.35-.21,1.83-1.06,4.45-2.51,2.15-1.29,4.21-2.39,6.16-3.35,1.22-.7,3.66-2,7.4-3.86,1.64-.79,2.69-1.27,3.21-1.53l1.09,1.76a13.29,13.29,0,0,1,1.29,3.05l-.54,3-2.5,2.46-3.63.85-3-.92a9.2,9.2,0,0,1-2.4-3.24l-.7.09-.66,1.91a45.29,45.29,0,0,1-3,5.48l-4.59,7.79-.86,1.05,1.7,3c.48.94,1.23,2.37,2.22,4.39l1.6-.86-.46-1.33.15-.85C60.71,393.93,61.18,392.87,62,391.24Z"/><path class="cls-2" d="M355.05,491.34a27.43,27.43,0,0,1,.46,4.06l-.15.41-2.2,1.26c-1.23.5-2.59,1-4.12,1.5s-2.92.91-4.05,1.24l-.92-2.62-2.89-8.82c.85-.38,1.91-.75,3.28-1.22a37.49,37.49,0,0,1,3.78-1l1.11.25a7.13,7.13,0,0,1,1.28,2.88l1.78-.61-1.58-4.5-1.42-4.65-1.7.52a10.2,10.2,0,0,1,.55,2.77l-.1.51-1.31.61c-1.93.68-3.09,1.11-3.42,1.21l-3,.92L339,481.76a44.64,44.64,0,0,1-1.69-6.1c1.3-.45,2.51-1,3.78-1.38a25.85,25.85,0,0,1,4.1-1.07L347,473l.39.27a17.32,17.32,0,0,1,1.19,3l1.64-.58c-.43-1.86-.76-2.79-.8-3.07l-.57-3.08-.22-.29-.73.11c-1.54.44-2.63.78-3.14.93l-4.18,1.5c-2.33.83-4.44,1.52-6.35,2.17l-2.76.87-4.86,1.44.56,1.78a11.69,11.69,0,0,1,3.15-.55l.41.2a11.23,11.23,0,0,1,1.24,2.79l1.45,4,3,9.43c.37,1.06.88,2.81,1.55,5.25.38,1.32.64,2.29.75,2.91L337.05,504l.4,1.13c4.26-1.45,6.59-2.31,6.9-2.4,1.28-.41,3.6-1.11,6.87-2.2l3.4-1c1.63-.58,2.87-1.06,3.76-1.43l.14-.38a70.45,70.45,0,0,1-1.71-6.89Z"/><path class="cls-2" d="M80.52,413.94a26.87,26.87,0,0,1-3.78,1.72h-.51l-1.76-1.78-2.68-3.46c-.91-1.33-1.69-2.49-2.33-3.49l2.14-1.68,7.56-5.38,2.17,2.78,2,3.32.1,1.1a7.64,7.64,0,0,1-2.37,2.08l1.14,1.52,3.88-2.82,4-2.77L89,403.62,86.57,405H86l-.93-1c-1.24-1.64-2-2.65-2.15-2.93l-1.76-2.63,3.65-2.63c2.11-1.46,3.87-2.57,5.32-3.41l2.46,3.21a31,31,0,0,1,2.27,3.64l.75,1.59-.23.5a15.6,15.6,0,0,1-2.45,2l1,1.44c1.61-1,2.49-1.56,2.74-1.66l2.77-1.54.16-.28-.31-.64c-.89-1.34-1.46-2.21-1.78-2.68l-2.69-3.6c-1.47-1.95-2.78-3.76-3.95-5.39l-1.64-2.37-2.87-4.21-1.53,1.08a13.72,13.72,0,0,1,1.53,2.79l-.09.44A11.2,11.2,0,0,1,84,388.76c-2,1.45-3.13,2.32-3.46,2.49l-8,5.75c-1,.62-2.49,1.68-4.57,3.07l-2.57,1.54-2.3-1-.93.71c2.67,3.62,4.12,5.61,4.37,5.85.78,1.08,2.13,3,4.12,5.89l2,2.93A38.78,38.78,0,0,0,75,419.17l.41.05a62.81,62.81,0,0,1,6.11-3.78Z"/><path class="cls-2" d="M327.32,494.43l-1.38-1.95-2-1.12-3.06-.5c-.43,0-1.46,0-3,0s-2.73.07-3.61,0l-2.69-.44L310,489.28l-.92-2.25a4.65,4.65,0,0,1,.95-3.76,6.31,6.31,0,0,1,4.26-2.35,9.06,9.06,0,0,1,3.81,0l2.65,1.26a21.91,21.91,0,0,1,1,3.48l1.73-.35c-.24-1.47-.36-2.69-.48-3.58l-.09-2.85-.29-.47a13.42,13.42,0,0,0-3.93-.46,24.46,24.46,0,0,0-4.53.41,22.52,22.52,0,0,0-4.17,1.31,11.84,11.84,0,0,0-3.45,2.38,8,8,0,0,0-2,3.67,10.07,10.07,0,0,0-.22,4.65l1.23,3.06,2.22,2.26a6.74,6.74,0,0,0,3.28,1.07c.88.06,2.65.13,5.35.2a13.82,13.82,0,0,1,4,.47l1.94,1.23.92,2.26-.19,3-1.89,2.44a9.72,9.72,0,0,1-8.06,1.25,6.77,6.77,0,0,1-3.29-1.81,23.66,23.66,0,0,1-1-3.79l-1.74.32a36.12,36.12,0,0,1,.7,7.64,27.12,27.12,0,0,0,4.9.83,23.18,23.18,0,0,0,4.83-.4,18.54,18.54,0,0,0,6-2.24l2.77-2.61,1.83-3.29a10.19,10.19,0,0,0,.21-5.12Z"/><path class="cls-2" d="M277,499.12l-1.67-1.48-2.92-1.15c-.42-.14-1.43-.25-2.92-.53s-2.69-.56-3.54-.76l-2.54-1-1.28-1.43-.45-2.4a4.44,4.44,0,0,1,1.72-3.49,6.59,6.59,0,0,1,4.63-1.43,9.08,9.08,0,0,1,3.72.79l2.37,1.73a30.35,30.35,0,0,1,.18,3.58l1.82.09c.08-1.5.16-2.68.25-3.65l.49-2.76-.17-.53a14.85,14.85,0,0,0-3.74-1.33,29.11,29.11,0,0,0-4.52-.39,17.54,17.54,0,0,0-4.43.39,12.88,12.88,0,0,0-3.81,1.6,8,8,0,0,0-2.75,3.18,10,10,0,0,0-1.1,4.51l.53,3.3,1.7,2.61a6.25,6.25,0,0,0,3,1.7c.86.25,2.54.68,5.21,1.34a15.23,15.23,0,0,1,3.86,1.2l1.59,1.59.44,2.46-.74,2.91-2.36,2a8.58,8.58,0,0,1-3.76.68,9.22,9.22,0,0,1-4.42-1.13,6.3,6.3,0,0,1-2.8-2.42,29.17,29.17,0,0,1-.22-4h-1.82a32.08,32.08,0,0,1-.8,7.6,19.55,19.55,0,0,0,9.41,2.39,16.58,16.58,0,0,0,6.31-1l3.25-2,2.49-2.87a9.93,9.93,0,0,0,1.22-5l-.36-2.84Z"/><path class="cls-2" d="M248.09,511.47l-.4-.3-.34-.66-.5-2.12-.87-3.18L240.09,481l-3.1-.55-2.68,4.62-8,13c-1.49,2.49-2.55,4.14-3,5-1.14,1.73-1.82,2.76-2,3.06l-.62.57-.66.22-2.09-.18-.33,1.84,5,.66,5,1,.27-1.8a10.64,10.64,0,0,1-3-.85l-.21-.86a16.24,16.24,0,0,1,1.7-3.51l1.39-2.49,11.15,1.83,1.1,5.1.16,1.88-.45.57a16.16,16.16,0,0,1-3-.2l-.3,1.81L244,512.8l6,1.14.32-1.84-.95-.27ZM233.7,499.2c-1.72-.29-3.22-.54-4.6-.79l6.31-10.47,2.77,12C236.83,499.71,235.35,499.54,233.7,499.2Z"/><path class="cls-2" d="M101.24,441.68l1.34-3L112.9,416l-2.12-2.27-5,1.88-14.32,5.31q-4.06,1.56-5.44,2c-2,.71-3.17,1.1-3.46,1.17l-.84.1-.62-.26-1.6-1.41-1.37,1.24,3.57,3.69L85,431.21l1.34-1.27a9.32,9.32,0,0,1-1.81-2.55l.32-.79a15.3,15.3,0,0,1,3.53-1.7l2.6-1.06,7.58,8.3-2.26,4.66-1,1.54-.68.25a24.5,24.5,0,0,1-2.29-2L91,437.78l5.32,5.63,4,4.51,1.34-1.13-.55-.81-.77-1.08-.07-.5.12-.7Zm-1.58-12c-.88-.91-2-2-3.08-3.3l-3.11-3.48,11.4-4.27Z"/><path class="cls-2" d="M47.21,363.77A17.87,17.87,0,0,1,44,360.43a18.25,18.25,0,0,1-2-3.72,15.79,15.79,0,0,1-1.23-5.84,12.73,12.73,0,0,1,1.08-4.18,13.22,13.22,0,0,1,3-4.17,17.91,17.91,0,0,1,5.38-3.27c3.59-1.48,6.75-1.58,9.54-.53a10.77,10.77,0,0,1,6.16,6.49,11.74,11.74,0,0,1,1,4.59,9.56,9.56,0,0,1-.88,3.92,30.9,30.9,0,0,1-3.49,1.67l.61,1.56c1.32-.42,2.81-.85,4.44-1.31l2.62-.45.22-.24a31.3,31.3,0,0,0-.61-5.61,33.69,33.69,0,0,0-1.57-5.14c-2.18-5.38-5.18-8.92-9-10.75a15.06,15.06,0,0,0-12.26-.24,17.69,17.69,0,0,0-6.36,4.34,15,15,0,0,0-2.81,4.34,14.53,14.53,0,0,0-1.13,5.62,22.39,22.39,0,0,0,1.67,8.19,23.61,23.61,0,0,0,2.57,4.84,21.5,21.5,0,0,0,3.67,3.85l2.44.15Z"/><path class="cls-2" d="M43.28,317a10.63,10.63,0,1,0-10.61-10.6A10.62,10.62,0,0,0,43.28,317Z"/><path class="cls-2" d="M42.88,192.71l.68-.94.6-.17a13.7,13.7,0,0,1,3.37.81c1.91.63,3.94,1.33,6.23,2.11l21,7.43c.43.13,2.47.92,6.22,2.39a22.79,22.79,0,0,1,3.6,1.59l1,1.33L85.52,209l-1,1.58-2.27,1.63.09.74c2.06.72,3.68,1.31,4.9,1.86l1.11-2a7.62,7.62,0,0,0,.41-3.42,17.74,17.74,0,0,0-.8-4.2,21.86,21.86,0,0,0-1.9-4.12,15.46,15.46,0,0,0-3.94-4.32,27.53,27.53,0,0,0-6.62-3.23L64,189.51l-9.71-3.45c-2.64-.95-4.65-1.73-6.08-2.38L47,182.8l-.15-1.22a31.16,31.16,0,0,1,1-3.28l-2.34-.84c-.61,2.15-1.46,4.66-2.49,7.61-1.23,3.53-2.53,7.05-3.87,10.4l2.37.87Z"/><path class="cls-2" d="M58.47,172.85A22.94,22.94,0,0,0,65.24,179,21.56,21.56,0,0,0,76.12,183a17.39,17.39,0,0,0,9.65-2.32,23.25,23.25,0,0,0,7.87-8.09,25.65,25.65,0,0,0,4.13-9.79,19.38,19.38,0,0,0-.19-7.27,17.27,17.27,0,0,0-2.9-6.58,26.93,26.93,0,0,0-7.34-7,23.63,23.63,0,0,0-5.21-2.56,16.69,16.69,0,0,0-5.06-1,16.43,16.43,0,0,0-5.58.74A17.31,17.31,0,0,0,65.77,142a30.84,30.84,0,0,0-6.28,7.13A29.77,29.77,0,0,0,55.55,158a17.54,17.54,0,0,0-.15,7.44A17.77,17.77,0,0,0,58.47,172.85Zm3.37-21.35A11.87,11.87,0,0,1,66,147.23a11.74,11.74,0,0,1,5-1.34,19.88,19.88,0,0,1,6.09.94,31.73,31.73,0,0,1,6.57,3.24,29,29,0,0,1,7.44,6.69,11.7,11.7,0,0,1,2.47,6.87,13.27,13.27,0,0,1-7.17,11,12.74,12.74,0,0,1-7.72.6,28.42,28.42,0,0,1-10.19-4.36,26.59,26.59,0,0,1-6.34-5.73,11,11,0,0,1-2.57-6.63A12.48,12.48,0,0,1,61.84,151.5Z"/><path class="cls-2" d="M127.34,96.93a22.09,22.09,0,0,0,6.81,7.07,17,17,0,0,0,5.89,2.41,19.76,19.76,0,0,0,7.14.27,27.41,27.41,0,0,0,10.7-4.25,38.22,38.22,0,0,0,6.24-4.8,61.84,61.84,0,0,0,6.39-7.26l-2.59-3.59c-.49-.79-1.23-2.14-2.39-4.07L165,81.25l1.34-2-1-1.58-7.18,4.66-7.24,4.4,1.19,1.9A28.33,28.33,0,0,1,157,86.36h.93a11.15,11.15,0,0,1,1.87,2.6l1.4,2.24,1.44,2.53-2.41,3L157.29,99a14.61,14.61,0,0,1-12,1.68q-6.42-1.83-10.9-8.94c-2.72-4.43-3.67-8.55-2.83-12.57s3.28-7.26,7.32-9.78a18.27,18.27,0,0,1,5-2.26,14.21,14.21,0,0,1,4.64-.65l2.07.4,1.36,1.66,1.56,2.2,1.9-1.18a65.64,65.64,0,0,1-3.66-8.2l-.43-.31a32.55,32.55,0,0,0-6.56,1.82,43,43,0,0,0-8.08,4.05,32.91,32.91,0,0,0-5.76,4.37,22.2,22.2,0,0,0-4.15,5.23,20.17,20.17,0,0,0-2.38,6.24,17.06,17.06,0,0,0,0,6.9A20.27,20.27,0,0,0,127.34,96.93Z"/></g><g id="Layer_2" data-name="Layer 2"><circle class="cls-3" cx="270.15" cy="270.14" r="188.98"/><circle class="cls-1" cx="328.44" cy="329.69" r="59.55" transform="translate(-49.6 601.08) rotate(-80.78)"/><line class="cls-4" x1="328.44" y1="329.69" x2="328.44" y2="284.18"/><line class="cls-4" x1="315.66" y1="351.82" x2="328.44" y2="329.69"/><circle class="cls-1" cx="163.98" cy="205.7" r="22.71" transform="matrix(0.23, -0.97, 0.97, 0.23, -73.89, 318.03)"/><circle class="cls-1" cx="311.24" cy="169.63" r="22.71" transform="translate(-28.79 269.76) rotate(-45)"/><circle class="cls-1" cx="220.39" cy="289.34" r="22.71" transform="translate(-111.85 437.36) rotate(-76.72)"/><circle class="cls-1" cx="410.7" cy="247.43" r="22.71" transform="translate(75.54 590.29) rotate(-76.72)"/><circle class="cls-1" cx="190.74" cy="373.19" r="22.71"/><circle class="cls-1" cx="232.12" cy="119.41" r="22.71" transform="translate(-16.45 199.1) rotate(-45)"/><path class="cls-1" d="M250.07,199.31a7,7,0,1,1-7-7A7,7,0,0,1,250.07,199.31Z"/><path class="cls-1" d="M128,224.71a7,7,0,1,1-7-7A7,7,0,0,1,128,224.71Z"/><circle class="cls-1" cx="328.44" cy="231.24" r="6.97"/><path class="cls-1" d="M277.12,266.63a7,7,0,1,1-7-7A7,7,0,0,1,277.12,266.63Z"/><circle class="cls-1" cx="175" cy="324.25" r="6.97"/><path class="cls-1" d="M250.07,395.9a7,7,0,1,1-7-7A7,7,0,0,1,250.07,395.9Z"/><path class="cls-1" d="M377.36,169.63a7,7,0,1,1-7-7A7,7,0,0,1,377.36,169.63Z"/><path class="cls-1" d="M430.43,310.31a7,7,0,1,1-7-7A7,7,0,0,1,430.43,310.31Z"/><path class="cls-1" d="M295.5,119.41a7,7,0,1,1-7-7A7,7,0,0,1,295.5,119.41Z"/><path class="cls-1" d="M318.21,426.17a7,7,0,1,1-7-7A7,7,0,0,1,318.21,426.17Z"/></g></svg>